<?xml version="1.0" encoding="UTF-8" standalone="no"?>
<!-- Created with Inkscape (http://www.inkscape.org/) -->

<svg
   width="512"
   height="512"
   viewBox="0 0 512 512"
   version="1.1"
   id="svg1"
   sodipodi:docname="add_image_icon.svg"
   inkscape:version="1.3.2 (091e20e, 2023-11-25)"
   xmlns:inkscape="http://www.inkscape.org/namespaces/inkscape"
   xmlns:sodipodi="http://sodipodi.sourceforge.net/DTD/sodipodi-0.dtd"
   xmlns="http://www.w3.org/2000/svg"
   xmlns:svg="http://www.w3.org/2000/svg">
  <sodipodi:namedview
     id="namedview1"
     pagecolor="#505050"
     bordercolor="#ffffff"
     borderopacity="1"
     inkscape:showpageshadow="0"
     inkscape:pageopacity="0"
     inkscape:pagecheckerboard="1"
     inkscape:deskcolor="#505050"
     inkscape:document-units="px"
     inkscape:lockguides="true"
     inkscape:zoom="1.4947308"
     inkscape:cx="256.23343"
     inkscape:cy="254.22638"
     inkscape:window-width="1920"
     inkscape:window-height="1008"
     inkscape:window-x="0"
     inkscape:window-y="0"
     inkscape:window-maximized="1"
     inkscape:current-layer="layer2" />
  <defs
     id="defs1">
    <rect
       x="84.527344"
       y="108.33008"
       width="301.23243"
       height="191.2207"
       id="rect6" />
    <rect
       x="84.527344"
       y="108.33008"
       width="53.661711"
       height="52.784348"
       id="rect5" />
    <rect
       x="312.0398"
       y="272.55721"
       width="6.3681592"
       height="16.557214"
       id="rect4" />
    <rect
       x="94.248756"
       y="124.1791"
       width="255.52239"
       height="146.71496"
       id="rect3" />
  </defs>
  <g
     inkscape:groupmode="layer"
     id="layer2"
     inkscape:label="Layer 2">
    <rect
       style="display:inline;fill:#61789c;fill-opacity:1;stroke:#ffffff;stroke-width:1.897;stroke-dasharray:none;stroke-opacity:1"
       id="rect7"
       width="371.61279"
       height="218.12056"
       x="71.238029"
       y="102.08336"
       ry="3.4934115" />
    <path
       d="m 306.50391,120.27539 c -69.85199,0 -253.213105,177.55678 -218.287113,211.37695 25.700413,24.8867 230.756753,31.39158 351.371093,19.65235 V 199.04297 C 392.38637,156.356 337.96792,120.27539 306.50391,120.27539 Z"
       style="fill:#405148;stroke:#ffffff;stroke-width:0"
       id="path18" />
    <path
       d="m 178.26758,146.70703 c -23.03281,0 -67.10573,37.67845 -102.667971,78.78125 V 339.7168 C 159.34935,350.29273 314.73694,345.43038 332.29687,325.09375 355.40139,298.33579 224.4766,146.70703 178.26758,146.70703 Z"
       style="fill:#3b513b;stroke:#ffffff;stroke-width:0"
       id="path17" />
    <path
       d="m 345.58594,186.24414 c -49.73862,0 -190.66423,151.53589 -165.79492,178.27734 18.02753,19.38464 170.77087,24.64073 263.09765,15.92188 V 251.33789 c -35.45332,-35.40056 -75.29346,-65.09375 -97.30273,-65.09375 z"
       style="fill:#4b6146;stroke:#ffffff;stroke-width:0"
       id="path19" />
    <ellipse
       style="fill:#bebe98;fill-opacity:1;stroke:#ffffff;stroke-width:0;stroke-dasharray:none;stroke-opacity:1"
       id="path8"
       cx="109.42748"
       cy="129.08871"
       rx="33.949524"
       ry="35.101933" />
  </g>
  <g
     inkscape:label="Layer 1"
     inkscape:groupmode="layer"
     id="layer1">
    <path
       d="m 36.617187,17.511719 c -10.583869,0 -19.105468,8.521599 -19.105468,19.105468 V 475.38281 c 0,10.58387 8.521599,19.10547 19.105468,19.10547 H 475.38281 c 10.58387,0 19.10547,-8.5216 19.10547,-19.10547 V 36.617187 c 0,-10.583869 -8.5216,-19.105468 -19.10547,-19.105468 z M 48.986328,37.882812 H 463.01367 c 6.15193,0 11.10352,4.951587 11.10352,11.103516 V 463.01367 c 0,6.15193 -4.95159,11.10352 -11.10352,11.10352 H 48.986328 c -6.151929,0 -11.103515,-4.95159 -11.103516,-11.10352 V 48.986328 c 0,-6.151929 4.951587,-11.103515 11.103516,-11.103516 z"
       style="stroke:#ffffff;stroke-width:1.5;stroke-dasharray:none;stroke-opacity:1"
       id="path1" />
    <path
       d="m 64.461771,85.173828 c -5.98908,0 -10.809427,4.325472 -10.809427,9.697266 V 382.42383 c 0,5.37179 4.820347,9.69531 10.809427,9.69531 H 447.53884 c 5.98908,0 10.80943,-4.32352 10.80943,-9.69531 V 94.871094 c 0,-5.371794 -4.82035,-9.697266 -10.80943,-9.697266 z M 88.075276,108.33008 H 423.92316 c 2.15774,0 3.89566,1.55684 3.89566,3.49219 v 184.23437 c 0,1.93535 -1.73792,3.49414 -3.89566,3.49414 H 88.075276 c -2.157744,0 -3.893485,-1.55879 -3.893485,-3.49414 V 111.82227 c 0,-1.93535 1.735741,-3.49219 3.893485,-3.49219 z"
       style="display:inline;fill:#000000;fill-opacity:1;stroke:#ffffff;stroke-width:1.5;stroke-dasharray:none;stroke-opacity:1"
       id="path2" />
    <path
       d="m 247.36328,256 c -6.1519,0 -11.10547,4.95356 -11.10547,11.10547 v 57.98828 h -57.99023 c -6.15188,0 -11.10352,4.95359 -11.10352,11.10547 v 17.27344 c 0,6.15188 4.95164,11.10351 11.10352,11.10351 h 57.99023 v 57.99024 c 0,6.15191 4.95355,11.10546 11.10547,11.10546 h 17.27344 c 6.15192,0 11.10351,-4.95355 11.10351,-11.10546 v -57.99024 h 57.99024 c 6.15189,0 11.10547,-4.95162 11.10547,-11.10351 v -17.27344 c 0,-6.15189 -4.95358,-11.10547 -11.10547,-11.10547 H 275.74023 V 267.10547 C 275.74023,260.95356 270.78862,256 264.63672,256 Z"
       style="display:inline;stroke:#ffffff;stroke-width:1.5;stroke-dasharray:none;stroke-opacity:1"
       id="path6" />
    <text
       xml:space="preserve"
       id="text5"
       style="font-size:64px;white-space:pre;shape-inside:url(#rect6);fill:#000000;fill-opacity:1;stroke:#ffffff;stroke-width:0.4;stroke-dasharray:none;stroke-opacity:1"
       x="61.551987"
       y="0"
       transform="translate(19.763002,-0.9250592)"><tspan
         x="177.34668"
         y="166.56209"
         id="tspan2"><tspan
           style="font-family:Hack;-inkscape-font-specification:Hack;text-align:center;text-anchor:middle"
           id="tspan1">ADD
</tspan></tspan><tspan
         x="138.81543"
         y="248.1691"
         id="tspan4"><tspan
           style="font-family:Hack;-inkscape-font-specification:Hack;text-align:center;text-anchor:middle"
           id="tspan3">IMAGE</tspan></tspan></text>
  </g>
</svg>
